<?xml version="1.0" standalone="no"?>
<!DOCTYPE svg PUBLIC "-//W3C//DTD SVG 20010904//EN"
 "http://www.w3.org/TR/2001/REC-SVG-20010904/DTD/svg10.dtd">
<svg version="1.0" xmlns="http://www.w3.org/2000/svg"
 width="992.000000pt" height="992.000000pt" viewBox="0 0 992.000000 992.000000"
 preserveAspectRatio="xMidYMid meet">
<metadata>
Created by potrace 1.11, written by Peter Selinger 2001-2013
</metadata>
<g transform="translate(0.000000,992.000000) scale(0.100000,-0.100000)"
fill="#000000" stroke="none">
<path d="M1285 9701 c0 -20 -3 -41 -8 -48 -4 -6 -4 -13 0 -16 4 -3 7 -31 5
-64 -4 -77 -4 -70 0 -135 2 -32 0 -58 -5 -58 -4 0 -4 -8 0 -17 5 -10 7 -47 6
-83 -4 -94 -4 -109 0 -167 1 -29 -1 -53 -6 -53 -4 0 -4 -8 0 -17 5 -10 7 -47
6 -83 -4 -94 -4 -109 0 -167 1 -29 -1 -53 -5 -53 -4 0 -5 -7 -1 -16 9 -23 8
-187 -1 -202 -4 -7 -4 -12 1 -12 4 0 8 -22 8 -50 0 -27 -4 -50 -9 -50 -5 0 -4
-6 1 -12 10 -16 10 -98 0 -115 -5 -7 -5 -13 0 -13 4 0 8 -22 8 -50 0 -27 -4
-50 -9 -50 -5 0 -4 -6 1 -12 10 -16 10 -98 0 -115 -5 -7 -5 -13 0 -13 4 0 8
-22 8 -50 0 -27 -4 -50 -9 -50 -5 0 -4 -6 1 -12 10 -16 10 -98 0 -115 -5 -7
-5 -13 0 -13 4 0 8 -22 8 -50 0 -27 -4 -50 -9 -50 -5 0 -4 -6 1 -12 10 -16 10
-98 0 -115 -5 -7 -5 -13 0 -13 4 0 8 -22 8 -50 0 -27 -4 -50 -9 -50 -5 0 -4
-6 1 -12 10 -16 10 -98 0 -115 -5 -7 -5 -13 0 -13 4 0 8 -22 8 -50 0 -27 -4
-50 -9 -50 -5 0 -4 -6 1 -12 10 -16 10 -98 0 -115 -5 -7 -5 -13 0 -13 4 0 8
-22 8 -50 0 -27 -4 -50 -9 -50 -5 0 -4 -6 1 -12 10 -16 10 -98 0 -115 -5 -7
-5 -13 0 -13 4 0 8 -22 8 -50 0 -27 -4 -50 -9 -50 -5 0 -4 -6 1 -12 10 -16 10
-98 0 -115 -5 -7 -5 -13 0 -13 4 0 8 -22 8 -50 0 -27 -4 -50 -8 -50 -5 0 -5
-5 -1 -12 11 -17 11 -138 0 -138 -5 0 -4 -6 1 -12 5 -7 8 -31 6 -53 -2 -22 -3
-47 -3 -55 0 -34 0 -216 0 -235 0 -11 1 -44 3 -72 1 -29 -1 -53 -6 -53 -4 0
-4 -8 0 -17 5 -10 7 -47 6 -83 -4 -94 -4 -109 0 -167 1 -29 -1 -53 -6 -53 -4
0 -4 -8 0 -17 5 -10 7 -47 6 -83 -4 -94 -4 -109 0 -167 1 -29 -1 -53 -6 -53
-4 0 -4 -8 0 -17 5 -10 7 -47 6 -83 -4 -94 -4 -109 0 -167 1 -29 -1 -53 -5
-53 -4 0 -5 -7 -1 -17 4 -9 6 -55 5 -102 -2 -114 -2 -110 1 -156 2 -22 -1 -46
-6 -52 -6 -8 -6 -13 0 -13 4 0 7 -26 6 -57 -4 -69 -4 -68 0 -118 2 -22 -1 -46
-6 -52 -6 -8 -6 -13 0 -13 4 0 7 -26 6 -57 -4 -69 -4 -68 0 -118 2 -22 -1 -46
-6 -52 -6 -8 -6 -13 0 -13 4 0 7 -26 6 -57 -4 -69 -4 -68 0 -118 2 -22 -1 -46
-6 -52 -6 -8 -6 -13 0 -13 4 0 7 -26 6 -58 -4 -68 -4 -67 0 -117 2 -22 -1 -46
-6 -52 -6 -8 -6 -13 0 -13 10 0 9 -101 -1 -118 -4 -7 -3 -12 1 -12 5 0 7 -21
5 -48 -3 -57 -3 -53 1 -124 1 -32 -2 -58 -6 -58 -6 0 -6 -5 0 -12 5 -7 8 -31
6 -53 -4 -50 -4 -49 0 -117 1 -32 -2 -58 -6 -58 -6 0 -6 -5 0 -12 5 -7 8 -31
6 -53 -4 -50 -4 -49 0 -117 1 -32 -2 -58 -6 -58 -6 0 -6 -5 0 -12 5 -7 8 -31
6 -53 -2 -22 -3 -46 -3 -52 0 -7 0 -40 0 -73 0 -33 0 -66 0 -72 0 -7 1 -31 3
-53 2 -22 -1 -46 -6 -52 -5 -7 -6 -13 -1 -13 7 0 8 -103 3 -235 0 -5 1 -36 3
-67 2 -32 0 -58 -5 -58 -4 0 -4 -8 0 -17 5 -10 7 -52 6 -93 -2 -41 -3 -79 -4
-85 0 -5 2 -36 3 -67 2 -32 0 -58 -5 -58 -4 0 -5 -5 -1 -12 4 -6 8 -28 8 -47
l1 -36 190 0 190 0 1 3850 c1 2118 2 3861 3 3875 l1 25 2447 -1 c1347 0 2453
3 2458 7 6 4 10 79 10 191 l0 183 -2651 1 -2650 2 1 -37z"/>
<path d="M2060 8972 c-7 -3 -10 -1342 -10 -3993 l0 -3989 2920 0 2920 0 0 103
c4 927 0 7871 -4 7875 -6 6 -5809 9 -5826 4z"/>
<path d="M8277 8346 c-2 -6 -3 -1749 -3 -3874 1 -2124 -1 -3862 -4 -3863 -3
-1 -1110 -2 -2460 -3 l-2454 -1 -1 -188 c0 -158 2 -188 15 -191 8 -3 1201 -4
2651 -4 l2637 1 -2 4066 -1 4066 -187 1 c-125 0 -188 -3 -191 -10z"/>
</g>
</svg>
