<svg xmlns="http://www.w3.org/2000/svg" viewBox="0 0 25.401 32.81" height="124.006" width="96.004" xmlns:v="https://vecta.io/nano"><path d="M4.684 7.21H21.02v18.675H4.684z" fill="#f9f9f9"/><path d="M7.397 31.44v-.633h16.266V5.172h1.27v26.904H7.397zM3.077 16.34V3.14H22.39v26.396H3.077zm3.558 7.233c0-.508-.127-.633-.634-.633s-.634.127-.634.633.127.633.634.633.634-.127.634-.633zm13.215 0v-.633H8.922v1.27H19.85zM6.634 18.75c0-.508-.127-.633-.634-.633s-.634.127-.634.633.127.633.634.633.634-.127.634-.633zm13.215 0v-.633H8.922v1.27H19.85zM6.634 13.928c0-.508-.127-.633-.634-.633s-.634.127-.634.633.127.633.634.633.634-.127.634-.633zm13.215 0v-.633H8.922v1.27H19.85zM6.634 9.106c0-.508-.127-.633-.634-.633s-.634.127-.634.633.127.633.634.633.634-.127.634-.633zm13.215 0v-.633H8.922v1.27H19.85zM.535 14.056V.602h17.538v1.27H1.806v25.635H.535z" fill="#36a257"/><path d="M3.077 16.34V3.14H22.39v26.396H3.077zm3.558 7.233c0-.508-.127-.633-.634-.633s-.634.127-.634.633.127.633.634.633.634-.127.634-.633zm13.215 0v-.633H8.922v1.27H19.85zM6.634 18.75c0-.508-.127-.633-.634-.633s-.634.127-.634.633.127.633.634.633.634-.127.634-.633zm13.215 0v-.633H8.922v1.27H19.85zM6.634 13.928c0-.508-.127-.633-.634-.633s-.634.127-.634.633.127.633.634.633.634-.127.634-.633zm13.215 0v-.633H8.922v1.27H19.85zM6.634 9.106c0-.508-.127-.633-.634-.633s-.634.127-.634.633.127.633.634.633.634-.127.634-.633zm13.215 0v-.633H8.922v1.27H19.85z"/></svg>